<?xml version="1.0" encoding="UTF-8"?>
<!DOCTYPE svg PUBLIC "-//W3C//DTD SVG 1.1//EN" "http://www.w3.org/Graphics/SVG/1.1/DTD/svg11.dtd">
<!-- Creator: CorelDRAW (Evaluation Version) -->
<svg xmlns="http://www.w3.org/2000/svg" xml:space="preserve" width="6.59698in" height="7.25738in" version="1.1" style="shape-rendering:geometricPrecision; text-rendering:geometricPrecision; image-rendering:optimizeQuality; fill-rule:evenodd; clip-rule:evenodd"
viewBox="0 0 6596.98 7257.38"
 xmlns:xlink="http://www.w3.org/1999/xlink"
 xmlns:xodm="http://www.corel.com/coreldraw/odm/2003">
 <defs>
  <style type="text/css">
   <![CDATA[
    .fil1 {fill:black;fill-rule:nonzero}
    .fil0 {fill:#00BF63;fill-rule:nonzero}
   ]]>
  </style>
 </defs>
 <g id="Layer_x0020_1">
  <metadata id="CorelCorpID_0Corel-Layer"/>
  <g id="_441845256">
   <g>
    <g>
     <g>
      <polygon class="fil0" points="660.13,4717.7 2061.94,4717.7 1401.74,7124 -0,7124 "/>
     </g>
     <path class="fil1" d="M4036.96 7257.38c-362.98,0 -697.35,-62.04 -1003.05,-186.24 -305.63,-124.14 -569.97,-297.78 -792.82,-520.62l-162.39 573.15 -1079.43 0 14.96 -5072.34 1432.62 0 4.41 448.93c210.17,-165.63 448.93,-294.53 716.38,-386.9 267.58,-92.36 557.29,-138.48 869.33,-138.48 503.11,0 945.7,113.04 1327.78,339.13 382.14,226.09 683.09,536.54 902.76,931.3 219.68,394.89 329.48,850.17 329.48,1366.04 0,515.86 -109.8,972.79 -329.48,1370.85 -219.68,398 -520.62,710.04 -902.76,936.13 -382.07,226.09 -824.67,339.06 -1327.78,339.06zm-1643.06 -2646.04c0,407.57 128.97,741.88 386.83,1003.05 257.93,261.04 590.79,391.65 998.37,391.65 413.92,0 748.22,-130.62 1002.98,-391.65 254.76,-261.17 382.07,-595.48 382.07,-1003.05 0,-407.58 -127.31,-741.88 -382.07,-1003.06 -254.76,-261.03 -589.07,-391.58 -1002.98,-391.58 -407.58,0 -740.43,130.55 -998.37,391.58 -257.86,261.17 -386.83,595.48 -386.83,1003.06z"/>
     <g>
      <polygon class="fil0" points="1674.35,0 3105.52,0 3105.52,4.41 2446.84,2051.32 1014.22,2051.32 "/>
     </g>
    </g>
   </g>
  </g>
 </g>
</svg>
