<?xml version="1.0" encoding="UTF-8"?>
<!DOCTYPE svg PUBLIC "-//W3C//DTD SVG 1.1//EN" "http://www.w3.org/Graphics/SVG/1.1/DTD/svg11.dtd">
<!-- Creator: CorelDRAW (Evaluation Version) -->
<svg xmlns="http://www.w3.org/2000/svg" xml:space="preserve" width="7.0607in" height="1.76779in" version="1.1" style="shape-rendering:geometricPrecision; text-rendering:geometricPrecision; image-rendering:optimizeQuality; fill-rule:evenodd; clip-rule:evenodd"
viewBox="0 0 7060.7 1767.79"
 xmlns:xlink="http://www.w3.org/1999/xlink"
 xmlns:xodm="http://www.corel.com/coreldraw/odm/2003">
 <defs>
  <style type="text/css">
   <![CDATA[
    .fil1 {fill:#00BF63;fill-rule:nonzero}
    .fil2 {fill:#00BF63;fill-rule:nonzero}
    .fil0 {fill:white;fill-rule:nonzero}
   ]]>
  </style>
 </defs>
 <g id="Layer_x0020_1">
  <metadata id="CorelCorpID_0Corel-Layer"/>
  <g id="_463366344">
   <g>
    <path class="fil0" d="M2841.02 1254.65l0 -846.94 182.3 0 25.81 95.18c34.42,-39.79 76.09,-69.37 125.02,-88.73 48.93,-19.35 101.36,-29.04 157.29,-29.04 110.78,0 197.62,34.42 260.54,103.25 62.92,68.83 93.29,242.47 93.29,359.69l-236.73 0c0,-62.38 -22.18,-165.84 -51.76,-200.79 -29.58,-34.96 -70.71,-52.43 -123.41,-52.43 -55.93,0 -101.1,19.36 -135.52,58.08 -34.41,38.72 -51.62,91.41 -51.62,158.09l0 443.64 -245.21 0z"/>
    <polygon class="fil0" points="-0,1274.45 -0,80.66 245.21,80.66 245.21,1274.45 "/>
    <path class="fil0" d="M330.64 1274.45l0 -846.95 245.21 0 0 846.95 -245.21 0zm-35.49 -1121.19c0,-45.17 14.79,-82.01 44.36,-110.51 29.58,-28.5 67.49,-42.75 113.74,-42.75 47.32,0 85.5,14.25 114.54,42.75 29.04,28.5 43.56,65.33 43.56,110.51 0,45.17 -14.52,82 -43.56,110.51 -29.04,28.5 -67.22,42.75 -114.54,42.75 -46.24,0 -84.16,-14.25 -113.74,-42.75 -29.57,-28.51 -44.36,-65.34 -44.36,-110.51z"/>
    <path class="fil0" d="M987.15 1297.03c-77.43,0 -144.92,-12.37 -202.46,-37.1 -57.54,-24.74 -102.17,-59.15 -133.9,-103.25 -31.72,-44.09 -47.59,-95.72 -47.59,-154.87l240.37 0c1.07,34.42 14.52,61.84 40.33,82.28 25.81,20.44 61.3,30.65 106.47,30.65 38.72,0 68.83,-7.26 90.34,-21.78 21.52,-14.52 32.27,-34.15 32.27,-58.88 0,-26.89 -14.52,-49.2 -43.56,-66.95 -29.04,-17.75 -76.36,-32 -141.96,-42.75 -107.55,-19.36 -186.59,-50.55 -237.15,-93.57 -50.55,-43.02 -75.82,-99.48 -75.82,-169.39 0,-82.82 30.92,-146.27 92.76,-190.37 61.84,-44.09 149.76,-66.14 263.76,-66.14 112.93,0 201.38,24.2 265.37,72.6 63.99,48.39 98.68,117.23 104.05,206.49l-233.91 0c-2.15,-32.26 -15.33,-57.27 -39.53,-75.01 -24.2,-17.75 -56.73,-26.62 -97.6,-26.62 -36.56,0 -65.33,7 -86.3,20.97 -20.97,13.98 -31.46,33.34 -31.46,58.08 0,25.81 13.71,45.98 41.14,60.5 27.43,14.52 77.17,29.3 149.22,44.36 208.64,41.95 312.96,131.75 312.96,269.41 0,80.67 -32.54,144.39 -97.6,191.18 -65.06,46.78 -155.13,70.17 -270.22,70.17z"/>
    <path class="fil0" d="M1792.03 1274.45c-107.55,0 -190.09,-27.69 -247.63,-83.08 -57.54,-55.39 -86.31,-134.71 -86.31,-237.95l0 -325.87 -164.55 0 0 -200.04 75.82 0c46.25,0 77.7,-7.52 94.37,-22.58 16.67,-15.06 28.24,-44.09 34.69,-87.11l14.52 -109.7 190.36 0 0 219.39 232.3 0 0 200.04 -232.3 0 0 288.77c0,96.79 47.32,145.19 141.96,145.19l101.63 0 0 212.95 -154.87 0z"/>
    <path class="fil0" d="M4399.29 1297.03c-61.3,0 -117.77,-10.48 -169.39,-31.46 -51.62,-20.97 -96.26,-50.28 -133.9,-87.93l-27.42 96.8 -182.3 0 2.52 -856.62 241.94 0 0.76 75.81c35.49,-27.96 75.82,-49.73 120.99,-65.33 45.17,-15.6 94.11,-23.39 146.81,-23.39 84.97,0 159.71,19.09 224.24,57.28 64.53,38.18 115.34,90.61 152.45,157.28 37.1,66.68 55.66,143.58 55.66,230.69 0,87.11 -18.56,164.28 -55.66,231.5 -37.11,67.22 -87.92,119.91 -152.45,158.09 -64.52,38.18 -139.27,57.27 -224.24,57.27zm-277.48 -446.87c0,68.83 21.78,125.3 65.33,169.39 43.56,44.09 99.76,66.14 168.59,66.14 69.91,0 126.37,-22.05 169.39,-66.14 43.02,-44.1 64.53,-100.56 64.53,-169.39 0,-68.83 -21.51,-125.29 -64.53,-169.39 -43.02,-44.09 -99.48,-66.14 -169.39,-66.14 -68.83,0 -125.03,22.05 -168.59,66.14 -43.56,44.1 -65.33,100.56 -65.33,169.39z"/>
    <path class="fil0" d="M5273.5 1297.03c-93.56,0 -176.11,-18.82 -247.63,-56.46 -71.52,-37.64 -127.44,-90.07 -167.78,-157.29 -40.33,-67.22 -60.5,-144.92 -60.5,-233.11 0,-88.19 20.17,-165.62 60.5,-232.3 40.33,-66.68 96.26,-118.84 167.78,-156.48 71.52,-37.64 154.07,-56.46 247.63,-56.46 93.57,0 176.11,18.83 247.63,56.46 71.52,37.64 127.17,89.8 166.96,156.48 39.8,66.68 59.69,144.11 59.69,232.3 0,88.19 -19.89,165.9 -59.69,233.11 -39.79,67.22 -95.45,119.65 -166.96,157.29 -71.52,37.64 -154.06,56.46 -247.63,56.46zm-233.92 -446.87c0,68.83 21.78,125.3 65.33,169.39 43.56,44.09 99.76,66.14 168.59,66.14 68.83,0 124.75,-22.05 167.77,-66.14 43.02,-44.1 64.53,-100.56 64.53,-169.39 0,-69.9 -21.51,-126.63 -64.53,-170.19 -43.02,-43.56 -98.94,-65.34 -167.77,-65.34 -68.83,0 -125.03,21.78 -168.59,65.34 -43.56,43.56 -65.33,100.29 -65.33,170.19z"/>
    <path class="fil0" d="M6181.6 1274.45c-107.55,0 -190.09,-27.69 -247.63,-83.08 -57.54,-55.39 -86.31,-134.71 -86.31,-237.95l0 -325.87 -164.55 0 0 -200.04 75.82 0c46.25,0 77.7,-7.52 94.37,-22.58 16.67,-15.06 28.24,-44.09 34.69,-87.11l14.52 -109.7 190.36 0 0 219.39 232.3 0 0 200.04 -232.3 0 0 288.77c0,96.79 47.32,145.19 141.96,145.19l101.63 0 0 212.95 -154.87 0z"/>
    <path class="fil0" d="M6692.89 1297.03c-77.43,0 -144.92,-12.37 -202.46,-37.1 -57.54,-24.74 -102.17,-59.15 -133.9,-103.25 -31.72,-44.09 -47.59,-95.72 -47.59,-154.87l240.37 0c1.07,34.42 14.52,61.84 40.33,82.28 25.81,20.44 61.3,30.65 106.47,30.65 38.72,0 68.83,-7.26 90.34,-21.78 21.52,-14.52 32.27,-34.15 32.27,-58.88 0,-26.89 -14.52,-49.2 -43.56,-66.95 -29.04,-17.75 -76.36,-32 -141.96,-42.75 -107.55,-19.36 -186.59,-50.55 -237.15,-93.57 -50.55,-43.02 -75.82,-99.48 -75.82,-169.39 0,-82.82 30.92,-146.27 92.76,-190.37 61.84,-44.09 149.76,-66.14 263.76,-66.14 112.93,0 201.38,24.2 265.37,72.6 63.99,48.39 98.68,117.23 104.05,206.49l-233.91 0c-2.15,-32.26 -15.33,-57.27 -39.53,-75.01 -24.2,-17.75 -56.73,-26.62 -97.6,-26.62 -36.56,0 -65.33,7 -86.3,20.97 -20.97,13.98 -31.46,33.34 -31.46,58.08 0,25.81 13.71,45.98 41.14,60.5 27.43,14.52 77.16,29.3 149.22,44.36 208.64,41.95 312.96,131.75 312.96,269.41 0,80.67 -32.54,144.39 -97.6,191.18 -65.06,46.78 -155.13,70.17 -270.22,70.17z"/>
    <path class="fil0" d="M2526.27 1232.9c-83.22,35.16 -164.11,48.9 -242.65,41.22 -78.55,-7.68 -148.73,-34.95 -210.56,-81.8 -61.83,-46.85 -109.89,-110.9 -144.21,-192.14 -34.31,-81.24 -46.37,-160.2 -36.15,-236.9 10.22,-76.7 39.95,-145.89 89.2,-207.56 49.25,-61.67 115.98,-110.29 200.2,-145.87 89.16,-37.67 174.56,-50.39 256.19,-38.17 81.63,12.21 154.61,46.78 218.91,103.67 64.31,56.89 114.08,133.93 149.31,231.14l-625.64 264.29c33.5,48.89 74.54,79.72 123.12,92.46 48.58,12.75 98.63,8.25 150.15,-13.52 37.65,-15.9 69.04,-37.63 94.18,-65.18 25.14,-27.55 41.68,-58.18 49.62,-91.89l228.85 -96.67c1.06,96.46 -24.74,183.24 -77.4,260.36 -52.65,77.11 -127.02,135.96 -223.13,176.56zm-404.18 -405.43l405.7 -171.38c-32.97,-42.11 -72.8,-69.36 -119.48,-81.75 -46.68,-12.39 -96.27,-7.49 -148.78,14.69 -49.53,20.93 -86.63,52.65 -111.28,95.17 -24.66,42.52 -33.37,90.27 -26.16,143.26z"/>
    <g>
     <polygon class="fil1" points="3448.54,848.06 3685.27,848.06 3573.77,1254.43 3337.05,1254.43 "/>
    </g>
    <g>
     <polygon class="fil1" points="4000.3,71.4 4241.99,71.4 4241.99,72.15 4130.74,417.83 3888.8,417.83 "/>
    </g>
   </g>
   <path class="fil2" d="M3376.03 1767.79c-16.81,0 -32.7,-2.44 -47.98,-7.03 -15.28,-4.89 -27.5,-11 -36.36,-18.64l13.75 -30.86c8.86,6.72 19.25,12.22 31.78,16.81 12.53,4.58 25.67,6.72 38.81,6.72 11.3,0 20.17,-1.22 27.19,-3.67 7.03,-2.44 11.92,-5.8 15.28,-9.78 3.36,-4.28 4.89,-9.17 4.89,-14.36 0,-6.42 -2.44,-11.61 -7.03,-15.59 -4.58,-3.97 -10.7,-7.33 -18.03,-9.47 -7.64,-2.44 -15.89,-4.58 -25.06,-6.72 -8.86,-2.14 -18.03,-4.28 -27.2,-7.03 -8.86,-2.75 -17.11,-6.42 -24.75,-11 -7.33,-4.28 -13.44,-10.08 -18.03,-17.42 -4.58,-7.33 -7.03,-16.81 -7.03,-28.11 0,-11.61 3.06,-22.31 9.17,-31.78 6.42,-9.78 15.89,-17.42 28.42,-23.22 12.83,-5.81 29.03,-8.86 48.59,-8.86 12.83,0 25.67,1.53 38.2,4.89 12.53,3.36 23.53,7.95 33,14.06l-12.53 30.86c-9.47,-5.81 -19.56,-10.08 -29.64,-12.83 -10.08,-2.75 -19.86,-3.97 -29.33,-3.97 -11,0 -19.86,1.22 -26.89,3.97 -7.03,2.75 -11.92,6.11 -14.97,10.39 -3.06,4.28 -4.59,9.17 -4.59,14.67 0,6.42 2.14,11.61 6.72,15.58 4.58,3.97 10.69,7.03 18.33,9.47 7.33,2.14 15.58,4.28 24.75,6.42 8.86,2.14 18.03,4.58 27.19,7.33 9.17,2.75 17.42,6.11 24.75,10.39 7.64,4.28 13.75,10.08 18.33,17.42 4.59,7.33 6.72,16.5 6.72,27.81 0,11.31 -3.06,22 -9.47,31.47 -6.11,9.78 -15.59,17.42 -28.42,23.22 -12.83,5.81 -29.03,8.86 -48.59,8.86z"/>
   <path id="_1" class="fil2" d="M3602.15 1767.79c-16.81,0 -32.09,-2.75 -46.14,-8.25 -14.06,-5.5 -26.28,-13.14 -36.67,-23.22 -10.39,-9.78 -18.33,-21.39 -24.14,-34.84 -5.8,-13.14 -8.56,-27.81 -8.56,-43.7 0,-15.89 2.75,-30.56 8.56,-43.7 5.81,-13.44 13.75,-25.06 24.14,-34.83 10.39,-10.08 22.61,-17.72 36.67,-23.22 14.06,-5.5 29.33,-8.25 45.83,-8.25 16.81,0 32.09,2.75 46.14,8.25 13.75,5.5 25.98,13.14 36.37,22.92 10.39,9.78 18.33,21.39 24.14,34.84 5.81,13.44 8.56,28.11 8.56,44 0,15.89 -2.75,30.56 -8.56,44 -5.8,13.44 -13.75,25.06 -24.14,34.83 -10.39,10.09 -22.61,17.72 -36.37,22.92 -14.06,5.5 -29.33,8.25 -45.83,8.25zm-0.31 -34.83c10.7,0 20.78,-1.83 29.95,-5.5 9.17,-3.67 17.11,-8.86 23.83,-15.59 6.72,-7.03 11.92,-14.97 15.89,-23.83 3.67,-9.17 5.5,-19.25 5.5,-30.25 0,-11 -1.83,-21.08 -5.5,-30.25 -3.97,-8.86 -9.17,-16.8 -15.89,-23.83 -6.72,-6.72 -14.67,-11.92 -23.83,-15.58 -9.17,-3.67 -19.25,-5.5 -29.95,-5.5 -10.69,0 -20.78,1.83 -29.94,5.5 -8.86,3.67 -16.81,8.86 -23.83,15.89 -6.72,6.72 -11.92,14.67 -15.89,23.83 -3.67,8.86 -5.5,18.94 -5.5,29.94 0,10.7 1.83,20.78 5.5,29.95 3.97,9.17 9.17,17.11 15.89,24.14 6.72,6.72 14.67,11.92 23.83,15.59 9.17,3.67 19.25,5.5 29.94,5.5z"/>
   <path id="_2" class="fil2" d="M3759.22 1764.74l0 -213.9 156.15 0 0 33.31 -116.43 0 0 180.59 -39.72 0zm36.36 -81.89l0 -33.61 106.65 0 0 33.61 -106.65 0z"/>
   <polygon id="_3" class="fil2" points="3998.78,1764.74 3998.78,1584.45 3927.89,1584.45 3927.89,1550.83 4109.4,1550.83 4109.4,1584.45 4038.51,1584.45 4038.51,1764.74 "/>
   <polygon id="_4" class="fil2" points="4186.56,1764.74 4115.67,1550.83 4156.92,1550.83 4220.17,1744.26 4199.7,1744.26 4265.4,1550.83 4302.07,1550.83 4365.93,1744.26 4346.07,1744.26 4410.85,1550.83 4448.74,1550.83 4377.85,1764.74 4335.68,1764.74 4277.31,1590.25 4288.32,1590.25 4229.04,1764.74 "/>
   <path id="_5" class="fil2" d="M4444.06 1764.74l96.26 -213.9 39.11 0 96.56 213.9 -41.56 0 -82.81 -192.82 15.89 0 -82.51 192.82 -40.94 0zm44.31 -49.5l10.7 -31.17 115.51 0 10.69 31.17 -136.9 0z"/>
   <path id="_6" class="fil2" d="M4703.19 1764.74l0 -213.9 87.7 0c28.42,0 50.72,6.72 66.92,20.17 16.19,13.45 24.44,32.09 24.44,55.92 0,15.59 -3.67,29.03 -11,40.33 -7.33,11.31 -17.72,20.17 -31.48,26.28 -13.44,5.81 -29.64,8.86 -48.59,8.86l-66 0 17.72 -17.72 0 80.06 -39.72 0zm139.95 0l-54.09 -77.61 42.48 0 54.39 77.61 -42.78 0zm-100.23 -76.09l-17.72 -18.95 64.17 0c17.42,0 30.56,-3.67 39.42,-11.3 8.86,-7.64 13.44,-18.03 13.44,-31.48 0,-13.75 -4.58,-24.14 -13.44,-31.47 -8.86,-7.33 -22,-11 -39.42,-11l-64.17 0 17.72 -19.56 0 123.76z"/>
   <path id="_7" class="fil2" d="M4926.56 1764.74l0 -213.9 156.15 0 0 33.31 -116.43 0 0 147.29 120.7 0 0 33.31 -160.43 0zm36.67 -92.28l0 -32.7 106.34 0 0 32.7 -106.34 0z"/>
   <path id="_8" class="fil2" d="M5281.94 1767.79c-16.81,0 -32.7,-2.44 -47.98,-7.03 -15.28,-4.89 -27.5,-11 -36.36,-18.64l13.75 -30.86c8.86,6.72 19.25,12.22 31.78,16.81 12.53,4.58 25.67,6.72 38.81,6.72 11.3,0 20.17,-1.22 27.19,-3.67 7.03,-2.44 11.92,-5.8 15.28,-9.78 3.36,-4.28 4.89,-9.17 4.89,-14.36 0,-6.42 -2.44,-11.61 -7.03,-15.59 -4.58,-3.97 -10.7,-7.33 -18.03,-9.47 -7.64,-2.44 -15.89,-4.58 -25.06,-6.72 -8.86,-2.14 -18.03,-4.28 -27.2,-7.03 -8.86,-2.75 -17.11,-6.42 -24.75,-11 -7.33,-4.28 -13.44,-10.08 -18.03,-17.42 -4.58,-7.33 -7.03,-16.81 -7.03,-28.11 0,-11.61 3.06,-22.31 9.17,-31.78 6.42,-9.78 15.89,-17.42 28.42,-23.22 12.83,-5.81 29.03,-8.86 48.59,-8.86 12.83,0 25.67,1.53 38.2,4.89 12.53,3.36 23.53,7.95 33,14.06l-12.53 30.86c-9.47,-5.81 -19.56,-10.08 -29.64,-12.83 -10.08,-2.75 -19.86,-3.97 -29.33,-3.97 -11,0 -19.86,1.22 -26.89,3.97 -7.03,2.75 -11.92,6.11 -14.97,10.39 -3.06,4.28 -4.59,9.17 -4.59,14.67 0,6.42 2.14,11.61 6.72,15.58 4.58,3.97 10.69,7.03 18.33,9.47 7.33,2.14 15.58,4.28 24.75,6.42 8.86,2.14 18.03,4.58 27.19,7.33 9.17,2.75 17.42,6.11 24.75,10.39 7.64,4.28 13.75,10.08 18.33,17.42 4.59,7.33 6.72,16.5 6.72,27.81 0,11.31 -3.06,22 -9.47,31.47 -6.11,9.78 -15.59,17.42 -28.42,23.22 -12.83,5.81 -29.03,8.86 -48.59,8.86z"/>
   <path id="_9" class="fil2" d="M5508.07 1767.79c-16.81,0 -32.09,-2.75 -46.14,-8.25 -14.06,-5.5 -26.28,-13.14 -36.67,-23.22 -10.39,-9.78 -18.33,-21.39 -24.14,-34.84 -5.8,-13.14 -8.56,-27.81 -8.56,-43.7 0,-15.89 2.75,-30.56 8.56,-43.7 5.81,-13.44 13.75,-25.06 24.14,-34.83 10.39,-10.08 22.61,-17.72 36.67,-23.22 14.06,-5.5 29.33,-8.25 45.83,-8.25 16.81,0 32.09,2.75 46.14,8.25 13.75,5.5 25.98,13.14 36.37,22.92 10.39,9.78 18.33,21.39 24.14,34.84 5.81,13.44 8.56,28.11 8.56,44 0,15.89 -2.75,30.56 -8.56,44 -5.8,13.44 -13.75,25.06 -24.14,34.83 -10.39,10.09 -22.61,17.72 -36.37,22.92 -14.06,5.5 -29.33,8.25 -45.83,8.25zm-0.31 -34.83c10.7,0 20.78,-1.83 29.95,-5.5 9.17,-3.67 17.11,-8.86 23.83,-15.59 6.72,-7.03 11.92,-14.97 15.89,-23.83 3.67,-9.17 5.5,-19.25 5.5,-30.25 0,-11 -1.83,-21.08 -5.5,-30.25 -3.97,-8.86 -9.17,-16.8 -15.89,-23.83 -6.72,-6.72 -14.67,-11.92 -23.83,-15.58 -9.17,-3.67 -19.25,-5.5 -29.95,-5.5 -10.69,0 -20.78,1.83 -29.94,5.5 -8.86,3.67 -16.81,8.86 -23.83,15.89 -6.72,6.72 -11.92,14.67 -15.89,23.83 -3.67,8.86 -5.5,18.94 -5.5,29.94 0,10.7 1.83,20.78 5.5,29.95 3.97,9.17 9.17,17.11 15.89,24.14 6.72,6.72 14.67,11.92 23.83,15.59 9.17,3.67 19.25,5.5 29.94,5.5z"/>
   <polygon id="_10" class="fil2" points="5665.13,1764.74 5665.13,1550.83 5704.86,1550.83 5704.86,1731.12 5816.7,1731.12 5816.7,1764.74 "/>
   <path id="_11" class="fil2" d="M5937.04 1767.79c-29.33,0 -52.25,-8.25 -68.75,-24.75 -16.81,-16.5 -25.06,-40.33 -25.06,-71.5l0 -120.7 39.72 0 0 119.17c0,22 4.89,37.89 14.36,47.98 9.47,10.08 22.61,14.97 40.03,14.97 17.11,0 30.56,-4.89 40.03,-14.97 9.47,-10.09 14.06,-25.98 14.06,-47.98l0 -119.17 39.11 0 0 120.7c0,31.17 -8.25,55 -25.06,71.5 -16.5,16.5 -39.42,24.75 -68.45,24.75z"/>
   <polygon id="_12" class="fil2" points="6125.48,1764.74 6125.48,1584.45 6054.59,1584.45 6054.59,1550.83 6236.1,1550.83 6236.1,1584.45 6165.2,1584.45 6165.2,1764.74 "/>
   <polygon id="_13" class="fil2" points="6266.05,1764.74 6266.05,1550.83 6305.77,1550.83 6305.77,1764.74 "/>
   <path id="_14" class="fil2" d="M6463.76 1767.79c-16.81,0 -32.09,-2.75 -46.14,-8.25 -14.06,-5.5 -26.28,-13.14 -36.67,-23.22 -10.39,-9.78 -18.33,-21.39 -24.14,-34.84 -5.8,-13.14 -8.56,-27.81 -8.56,-43.7 0,-15.89 2.75,-30.56 8.56,-43.7 5.81,-13.44 13.75,-25.06 24.14,-34.83 10.39,-10.08 22.61,-17.72 36.67,-23.22 14.06,-5.5 29.33,-8.25 45.83,-8.25 16.81,0 32.09,2.75 46.14,8.25 13.75,5.5 25.98,13.14 36.37,22.92 10.39,9.78 18.33,21.39 24.14,34.84 5.81,13.44 8.56,28.11 8.56,44 0,15.89 -2.75,30.56 -8.56,44 -5.8,13.44 -13.75,25.06 -24.14,34.83 -10.39,10.09 -22.61,17.72 -36.37,22.92 -14.06,5.5 -29.33,8.25 -45.83,8.25zm-0.31 -34.83c10.7,0 20.78,-1.83 29.95,-5.5 9.17,-3.67 17.11,-8.86 23.83,-15.59 6.72,-7.03 11.92,-14.97 15.89,-23.83 3.67,-9.17 5.5,-19.25 5.5,-30.25 0,-11 -1.83,-21.08 -5.5,-30.25 -3.97,-8.86 -9.17,-16.8 -15.89,-23.83 -6.72,-6.72 -14.67,-11.92 -23.83,-15.58 -9.17,-3.67 -19.25,-5.5 -29.95,-5.5 -10.69,0 -20.78,1.83 -29.94,5.5 -8.86,3.67 -16.81,8.86 -23.83,15.89 -6.72,6.72 -11.92,14.67 -15.89,23.83 -3.67,8.86 -5.5,18.94 -5.5,29.94 0,10.7 1.83,20.78 5.5,29.95 3.97,9.17 9.17,17.11 15.89,24.14 6.72,6.72 14.67,11.92 23.83,15.59 9.17,3.67 19.25,5.5 29.94,5.5z"/>
   <polygon id="_15" class="fil2" points="6620.82,1764.74 6620.82,1550.83 6653.52,1550.83 6787.67,1715.54 6771.47,1715.54 6771.47,1550.83 6810.89,1550.83 6810.89,1764.74 6778.19,1764.74 6644.05,1600.03 6660.24,1600.03 6660.24,1764.74 "/>
   <path id="_16" class="fil2" d="M6934.65 1767.79c-16.81,0 -32.7,-2.44 -47.98,-7.03 -15.28,-4.89 -27.5,-11 -36.36,-18.64l13.75 -30.86c8.86,6.72 19.25,12.22 31.78,16.81 12.53,4.58 25.67,6.72 38.81,6.72 11.3,0 20.17,-1.22 27.19,-3.67 7.03,-2.44 11.92,-5.8 15.28,-9.78 3.36,-4.28 4.89,-9.17 4.89,-14.36 0,-6.42 -2.44,-11.61 -7.03,-15.59 -4.58,-3.97 -10.7,-7.33 -18.03,-9.47 -7.64,-2.44 -15.89,-4.58 -25.06,-6.72 -8.86,-2.14 -18.03,-4.28 -27.2,-7.03 -8.86,-2.75 -17.11,-6.42 -24.75,-11 -7.33,-4.28 -13.44,-10.08 -18.03,-17.42 -4.58,-7.33 -7.03,-16.81 -7.03,-28.11 0,-11.61 3.06,-22.31 9.17,-31.78 6.42,-9.78 15.89,-17.42 28.42,-23.22 12.83,-5.81 29.03,-8.86 48.59,-8.86 12.83,0 25.67,1.53 38.2,4.89 12.53,3.36 23.53,7.95 33,14.06l-12.53 30.86c-9.47,-5.81 -19.56,-10.08 -29.64,-12.83 -10.08,-2.75 -19.86,-3.97 -29.33,-3.97 -11,0 -19.86,1.22 -26.89,3.97 -7.03,2.75 -11.92,6.11 -14.97,10.39 -3.06,4.28 -4.59,9.17 -4.59,14.67 0,6.42 2.14,11.61 6.72,15.58 4.58,3.97 10.69,7.03 18.33,9.47 7.33,2.14 15.58,4.28 24.75,6.42 8.86,2.14 18.03,4.58 27.19,7.33 9.17,2.75 17.42,6.11 24.75,10.39 7.64,4.28 13.75,10.08 18.33,17.42 4.59,7.33 6.72,16.5 6.72,27.81 0,11.31 -3.06,22 -9.47,31.47 -6.11,9.78 -15.59,17.42 -28.42,23.22 -12.83,5.81 -29.03,8.86 -48.59,8.86z"/>
  </g>
 </g>
</svg>
